<svg width="256" height="256" viewBox="0 0 256 256" fill="none" xmlns="http://www.w3.org/2000/svg">
<path d="M60.6146 174.08H30.6297L0 78.9666H32.403L60.6146 174.08Z" fill="#0FB2EF"/>
<path d="M60.6146 174.08H31.2745L59.3249 78.9666L91.8892 78.9666L60.6146 174.08Z" fill="#0FB2EF"/>
<path d="M105.19 174.08H90.1159L59.325 78.9666H91.8892L118.972 174.08H105.19Z" fill="#0FB2EF"/>
<path d="M118.972 174.08H90.2771L117.844 78.9666L150.247 78.9666L118.972 174.08Z" fill="#0FB2EF"/>
<path d="M150.81 78.9666L165.884 78.9666L196.675 174.08L164.111 174.08L137.028 78.9666L150.81 78.9666Z" fill="#F59122"/>
<path d="M195.385 78.9666L225.37 78.9666L256 174.08L223.597 174.08L195.385 78.9666Z" fill="#F59122"/>
<path d="M195.385 78.9666L224.725 78.9666L196.675 174.08L164.111 174.08L195.385 78.9666Z" fill="#F59121"/>
<path d="M137.028 78.9666L165.723 78.9666L138.156 174.08L105.753 174.08L137.028 78.9666Z" fill="#F59121"/>
</svg>
